<?xml version="1.0" standalone="no"?>
<!DOCTYPE svg PUBLIC "-//W3C//DTD SVG 20010904//EN"
 "http://www.w3.org/TR/2001/REC-SVG-20010904/DTD/svg10.dtd">
<svg version="1.0" xmlns="http://www.w3.org/2000/svg"
 width="167.000000pt" height="167.000000pt" viewBox="0 0 167.000000 167.000000"
 preserveAspectRatio="xMidYMid meet">
<metadata>
Created by potrace 1.14, written by Peter Selinger 2001-2017
</metadata>
<g transform="translate(0.000000,167.000000) scale(0.100000,-0.100000)"
fill="#000000" stroke="none">
<path d="M1100 1558 c0 -80 -43 -140 -158 -225 -39 -30 -79 -64 -88 -77 -22
-35 -28 -91 -14 -126 14 -34 30 -40 30 -10 0 60 54 105 122 103 50 -2 64 -14
49 -41 -17 -32 -14 -51 24 -142 69 -169 34 -291 -118 -411 -42 -34 -45 -39
-25 -39 38 0 184 55 238 90 101 65 185 180 215 295 17 67 19 199 4 264 -24
106 -115 238 -209 303 -62 44 -70 46 -70 16z"/>
<path d="M515 1515 c-169 -127 -244 -343 -190 -550 35 -134 145 -275 255 -327
l55 -26 -30 -7 c-143 -35 -224 -164 -213 -339 3 -45 13 -99 23 -121 l17 -40
14 52 c33 129 106 231 241 341 128 104 157 135 189 206 23 52 26 67 22 140 -6
109 -33 159 -158 294 -55 59 -114 134 -132 167 -31 56 -33 66 -33 158 0 53 0
97 0 97 0 0 -27 -20 -60 -45z"/>
<path d="M920 1196 c-13 -17 -6 -36 15 -36 19 0 26 27 11 39 -10 8 -17 7 -26
-3z"/>
</g>
</svg>
